<svg xmlns="http://www.w3.org/2000/svg" xmlns:xlink="http://www.w3.org/1999/xlink" width="500" zoomAndPan="magnify" viewBox="0 0 375 374.999991" height="500" preserveAspectRatio="xMidYMid meet" version="1.0"><defs><g/><clipPath id="3e620a65f6"><path d="M 44.480469 44.480469 L 330.519531 44.480469 L 330.519531 330.519531 L 44.480469 330.519531 Z M 44.480469 44.480469 " clip-rule="nonzero"/></clipPath><clipPath id="c34bacace8"><path d="M 187.5 44.480469 C 108.511719 44.480469 44.480469 108.511719 44.480469 187.5 C 44.480469 266.488281 108.511719 330.519531 187.5 330.519531 C 266.488281 330.519531 330.519531 266.488281 330.519531 187.5 C 330.519531 108.511719 266.488281 44.480469 187.5 44.480469 Z M 187.5 44.480469 " clip-rule="nonzero"/></clipPath></defs><rect x="-37.5" width="450" fill="#ffffff" y="-37.499999" height="449.999989" fill-opacity="1"/><rect x="-37.5" width="450" fill="#afafaf" y="-37.499999" height="449.999989" fill-opacity="1"/><g clip-path="url(#3e620a65f6)"><g clip-path="url(#c34bacace8)"><path fill="#ff4a3f" d="M 44.480469 44.480469 L 330.519531 44.480469 L 330.519531 330.519531 L 44.480469 330.519531 Z M 44.480469 44.480469 " fill-opacity="1" fill-rule="nonzero"/></g></g><g fill="#ffffff" fill-opacity="1"><g transform="translate(95.347378, 236.866148)"><g><path d="M 101.140625 -15.4375 C 100.859375 -12.988281 100.457031 -10.582031 99.9375 -8.21875 C 99.414062 -5.851562 98.773438 -3.75 98.015625 -1.90625 C 97.265625 -0.0703125 96.300781 1.382812 95.125 2.46875 C 93.945312 3.5625 92.601562 4.109375 91.09375 4.109375 C 89.582031 4.109375 88.210938 2.953125 86.984375 0.640625 C 85.753906 -1.671875 84.59375 -4.738281 83.5 -8.5625 C 82.414062 -12.394531 81.425781 -16.71875 80.53125 -21.53125 C 79.632812 -26.34375 78.832031 -31.226562 78.125 -36.1875 C 77.414062 -41.144531 76.820312 -45.984375 76.34375 -50.703125 C 75.875 -55.429688 75.5 -59.546875 75.21875 -63.046875 C 74.65625 -59.453125 73.992188 -55.4375 73.234375 -51 C 72.484375 -46.5625 71.585938 -42.050781 70.546875 -37.46875 C 69.503906 -32.882812 68.367188 -28.394531 67.140625 -24 C 65.921875 -19.613281 64.601562 -15.695312 63.1875 -12.25 C 61.769531 -8.800781 60.253906 -6.035156 58.640625 -3.953125 C 57.035156 -1.878906 55.335938 -0.84375 53.546875 -0.84375 C 51.941406 -0.84375 50.335938 -1.925781 48.734375 -4.09375 C 47.128906 -6.269531 45.570312 -9.128906 44.0625 -12.671875 C 42.550781 -16.210938 41.132812 -20.15625 39.8125 -24.5 C 38.488281 -28.851562 37.257812 -33.222656 36.125 -37.609375 C 34.988281 -42.003906 33.992188 -46.160156 33.140625 -50.078125 C 32.296875 -53.992188 31.640625 -57.273438 31.171875 -59.921875 C 31.171875 -57.941406 31.144531 -55.742188 31.09375 -53.328125 C 31.050781 -50.921875 31.03125 -49.203125 31.03125 -48.171875 C 31.03125 -47.691406 31.003906 -46.128906 30.953125 -43.484375 C 30.898438 -40.847656 30.734375 -37.6875 30.453125 -34 C 30.171875 -30.3125 29.742188 -26.363281 29.171875 -22.15625 C 28.609375 -17.957031 27.785156 -14.0625 26.703125 -10.46875 C 25.617188 -6.882812 24.269531 -3.863281 22.65625 -1.40625 C 21.050781 1.039062 19.070312 2.359375 16.71875 2.546875 C 14.832031 1.703125 13.25 0.265625 11.96875 -1.765625 C 10.695312 -3.796875 9.632812 -6.179688 8.78125 -8.921875 C 7.9375 -11.660156 7.273438 -14.585938 6.796875 -17.703125 C 6.328125 -20.816406 5.945312 -23.863281 5.65625 -26.84375 C 5.375 -29.820312 5.207031 -32.582031 5.15625 -35.125 C 5.113281 -37.675781 5.09375 -39.753906 5.09375 -41.359375 C 5.09375 -44.191406 5.257812 -47.753906 5.59375 -52.046875 C 5.925781 -56.347656 6.46875 -60.859375 7.21875 -65.578125 C 7.976562 -70.304688 8.972656 -75.03125 10.203125 -79.75 C 11.429688 -84.476562 12.914062 -88.707031 14.65625 -92.4375 C 16.40625 -96.164062 18.4375 -99.207031 20.75 -101.5625 C 23.0625 -103.925781 25.726562 -105.109375 28.75 -105.109375 C 30.164062 -105.109375 31.675781 -104.304688 33.28125 -102.703125 C 34.894531 -101.097656 36.503906 -98.992188 38.109375 -96.390625 C 39.710938 -93.796875 41.269531 -90.894531 42.78125 -87.6875 C 44.289062 -84.476562 45.726562 -81.242188 47.09375 -77.984375 C 48.46875 -74.722656 49.675781 -71.601562 50.71875 -68.625 C 51.757812 -65.65625 52.609375 -63.132812 53.265625 -61.0625 C 54.023438 -63.320312 54.96875 -65.960938 56.09375 -68.984375 C 57.226562 -72.003906 58.476562 -75.144531 59.84375 -78.40625 C 61.21875 -81.664062 62.726562 -84.875 64.375 -88.03125 C 66.03125 -91.195312 67.753906 -94.03125 69.546875 -96.53125 C 71.347656 -99.039062 73.164062 -101.070312 75 -102.625 C 76.84375 -104.1875 78.710938 -104.96875 80.609375 -104.96875 C 83.910156 -104.96875 86.738281 -103.738281 89.09375 -101.28125 C 91.457031 -98.832031 93.441406 -95.644531 95.046875 -91.71875 C 96.660156 -87.800781 97.9375 -83.410156 98.875 -78.546875 C 99.820312 -73.679688 100.554688 -68.863281 101.078125 -64.09375 C 101.597656 -59.332031 101.925781 -54.875 102.0625 -50.71875 C 102.207031 -46.5625 102.28125 -43.207031 102.28125 -40.65625 C 102.28125 -39.613281 102.28125 -38.195312 102.28125 -36.40625 C 102.28125 -34.613281 102.253906 -32.582031 102.203125 -30.3125 C 102.160156 -28.050781 102.046875 -25.644531 101.859375 -23.09375 C 101.671875 -20.539062 101.429688 -17.988281 101.140625 -15.4375 Z M 101.140625 -15.4375 "/></g></g></g><g fill="#ffffff" fill-opacity="1"><g transform="translate(203.430112, 236.866148)"><g><path d="M 75.359375 -6.234375 C 75.359375 -3.585938 74.695312 -1.441406 73.375 0.203125 C 72.050781 1.859375 70.023438 2.6875 67.296875 2.6875 C 65.117188 2.6875 63.109375 2.023438 61.265625 0.703125 C 59.421875 -0.617188 57.71875 -2.242188 56.15625 -4.171875 C 54.601562 -6.109375 53.238281 -8.160156 52.0625 -10.328125 C 50.882812 -12.503906 49.914062 -14.398438 49.15625 -16.015625 C 47.175781 -19.972656 45.21875 -23.9375 43.28125 -27.90625 C 41.34375 -31.875 39.429688 -35.890625 37.546875 -39.953125 L 29.046875 -34.703125 C 29.140625 -31.960938 28.992188 -29.222656 28.609375 -26.484375 C 28.234375 -23.742188 27.953125 -21.007812 27.765625 -18.28125 C 27.578125 -16.382812 27.269531 -14.328125 26.84375 -12.109375 C 26.414062 -9.890625 25.726562 -7.8125 24.78125 -5.875 C 23.84375 -3.9375 22.570312 -2.304688 20.96875 -0.984375 C 19.363281 0.328125 17.378906 0.984375 15.015625 0.984375 C 12.847656 0.984375 11.054688 0.535156 9.640625 -0.359375 C 8.222656 -1.253906 7.0625 -2.410156 6.15625 -3.828125 C 5.257812 -5.242188 4.625 -6.847656 4.25 -8.640625 C 3.875 -10.429688 3.6875 -12.273438 3.6875 -14.171875 L 3.6875 -15.296875 C 3.6875 -20.867188 3.992188 -26.460938 4.609375 -32.078125 C 5.222656 -37.703125 5.625 -43.347656 5.8125 -49.015625 C 6 -56.472656 6.234375 -63.929688 6.515625 -71.390625 C 6.796875 -78.859375 7.175781 -86.320312 7.65625 -93.78125 C 7.75 -95.476562 8.03125 -97.128906 8.5 -98.734375 C 8.96875 -100.335938 9.675781 -101.773438 10.625 -103.046875 C 11.570312 -104.328125 12.726562 -105.34375 14.09375 -106.09375 C 15.46875 -106.851562 17.097656 -107.234375 18.984375 -107.234375 C 21.910156 -107.234375 24.101562 -106.191406 25.5625 -104.109375 C 27.03125 -102.035156 28.046875 -99.535156 28.609375 -96.609375 C 29.179688 -93.679688 29.441406 -90.660156 29.390625 -87.546875 C 29.347656 -84.429688 29.328125 -81.832031 29.328125 -79.75 C 29.328125 -73.800781 29.1875 -67.851562 28.90625 -61.90625 C 31.632812 -64.175781 34.296875 -66.773438 36.890625 -69.703125 C 39.492188 -72.628906 41.789062 -75.601562 43.78125 -78.625 C 45 -80.414062 46.410156 -82.894531 48.015625 -86.0625 C 49.628906 -89.226562 51.378906 -92.296875 53.265625 -95.265625 C 55.148438 -98.242188 57.222656 -100.84375 59.484375 -103.0625 C 61.753906 -105.28125 64.164062 -106.390625 66.71875 -106.390625 C 69.457031 -106.390625 71.460938 -105.609375 72.734375 -104.046875 C 74.015625 -102.492188 74.65625 -100.441406 74.65625 -97.890625 C 74.65625 -94.109375 74.0625 -90.234375 72.875 -86.265625 C 71.695312 -82.304688 70.117188 -78.410156 68.140625 -74.578125 C 66.160156 -70.753906 63.914062 -67.117188 61.40625 -63.671875 C 58.90625 -60.222656 56.378906 -57.226562 53.828125 -54.6875 C 56.472656 -50.25 58.972656 -45.785156 61.328125 -41.296875 C 63.691406 -36.804688 66.054688 -32.296875 68.421875 -27.765625 C 69.273438 -26.253906 70.101562 -24.597656 70.90625 -22.796875 C 71.707031 -21.003906 72.4375 -19.164062 73.09375 -17.28125 C 73.757812 -15.394531 74.300781 -13.503906 74.71875 -11.609375 C 75.144531 -9.722656 75.359375 -7.929688 75.359375 -6.234375 Z M 75.359375 -6.234375 "/></g></g></g></svg>